HIERARCHY
ROOT Hips
{
	OFFSET 0.000000 0.000000 0.000000
	CHANNELS 6 Xposition Yposition Zposition Zrotation Yrotation Xrotation 
	JOINT LHipJoint
	{
		OFFSET 0.000000 0.000000 0.000000
		CHANNELS 3 Zrotation Yrotation Xrotation
		JOINT LeftUpLeg
		{
			OFFSET 1.363060 -1.794630 0.839290
			CHANNELS 3 Zrotation Yrotation Xrotation
			JOINT LeftLeg
			{
				OFFSET 2.448110 -6.726130 0.000000
				CHANNELS 3 Zrotation Yrotation Xrotation
				JOINT LeftFoot
				{
					OFFSET 2.562200 -7.039590 0.000000
					CHANNELS 3 Zrotation Yrotation Xrotation
					JOINT LeftToeBase
					{
						OFFSET 0.157640 -0.433110 2.322550
						CHANNELS 3 Zrotation Yrotation Xrotation
						End Site
						{
							OFFSET 0.000000 0.000000 0.000000
						}
					}
				}
			}
		}
	}
	JOINT RHipJoint
	{
		OFFSET 0.000000 0.000000 0.000000
		CHANNELS 3 Zrotation Yrotation Xrotation
		JOINT RightUpLeg
		{
			OFFSET -1.305520 -1.794630 0.839290
			CHANNELS 3 Zrotation Yrotation Xrotation
			JOINT RightLeg
			{
				OFFSET -2.542530 -6.985550 0.000000
				CHANNELS 3 Zrotation Yrotation Xrotation
				JOINT RightFoot
				{
					OFFSET -2.568260 -7.056230 0.000000
					CHANNELS 3 Zrotation Yrotation Xrotation
					JOINT RightToeBase
					{
						OFFSET -0.164730 -0.452590 2.363150
						CHANNELS 3 Zrotation Yrotation Xrotation
						End Site
						{
							OFFSET 0.000000 0.000000 0.000000
						}
					}
				}
			}
		}
	}
	JOINT LowerBack
	{
		OFFSET 0.000000 0.000000 0.000000
		CHANNELS 3 Zrotation Yrotation Xrotation
		JOINT Spine
		{
			OFFSET 0.028270 2.035590 -0.193380
			CHANNELS 3 Zrotation Yrotation Xrotation
			JOINT Spine1
			{
				OFFSET 0.056720 2.048850 -0.042750
				CHANNELS 3 Zrotation Yrotation Xrotation
				JOINT Neck
				{
					OFFSET 0.000000 0.000000 0.000000
					CHANNELS 3 Zrotation Yrotation Xrotation
					JOINT Neck1
					{
						OFFSET -0.054170 1.746240 0.172020
						CHANNELS 3 Zrotation Yrotation Xrotation
						JOINT Head
						{
							OFFSET 0.104070 1.761360 -0.123970
							CHANNELS 3 Zrotation Yrotation Xrotation
							End Site
							{
								OFFSET 0.000000 0.000000 0.000000
							}
						}
					}
				}
				JOINT LeftShoulder
				{
					OFFSET 0.000000 0.000000 0.000000
					CHANNELS 3 Zrotation Yrotation Xrotation
					JOINT LeftArm
					{
						OFFSET 3.362410 1.200890 -0.311210
						CHANNELS 3 Zrotation Yrotation Xrotation
						JOINT LeftForeArm
						{
							OFFSET 4.983000 -0.000000 -0.000000
							CHANNELS 3 Zrotation Yrotation Xrotation
							JOINT LeftHand
							{
								OFFSET 3.483560 -0.000000 -0.000000
								CHANNELS 3 Zrotation Yrotation Xrotation
								JOINT LeftFingerBase
								{
									OFFSET 0.000000 0.000000 0.000000
									CHANNELS 3 Zrotation Yrotation Xrotation
									JOINT LeftHandIndex1
									{
										OFFSET 0.715260 -0.000000 -0.000000
										CHANNELS 3 Zrotation Yrotation Xrotation
										End Site
										{
											OFFSET 0.000000 0.000000 0.000000
										}
									}
								}
								JOINT LThumb
								{
									OFFSET 0.000000 0.000000 0.000000
									CHANNELS 3 Zrotation Yrotation Xrotation
									End Site
									{
										OFFSET 0.000000 0.000000 0.000000
									}
								}
							}
						}
					}
				}
				JOINT RightShoulder
				{
					OFFSET 0.000000 0.000000 0.000000
					CHANNELS 3 Zrotation Yrotation Xrotation
					JOINT RightArm
					{
						OFFSET -3.136600 1.374050 -0.404650
						CHANNELS 3 Zrotation Yrotation Xrotation
						JOINT RightForeArm
						{
							OFFSET -5.241900 -0.000000 -0.000000
							CHANNELS 3 Zrotation Yrotation Xrotation
							JOINT RightHand
							{
								OFFSET -3.444170 -0.000000 -0.000000
								CHANNELS 3 Zrotation Yrotation Xrotation
								JOINT RightFingerBase
								{
									OFFSET 0.000000 0.000000 0.000000
									CHANNELS 3 Zrotation Yrotation Xrotation
									JOINT RightHandIndex1
									{
										OFFSET -0.622530 -0.000000 -0.000000
										CHANNELS 3 Zrotation Yrotation Xrotation
										End Site
										{
											OFFSET 0.000000 0.000000 0.000000
										}
									}
								}
								JOINT RThumb
								{
									OFFSET 0.000000 0.000000 0.000000
									CHANNELS 3 Zrotation Yrotation Xrotation
									End Site
									{
										OFFSET 0.000000 0.000000 0.000000
									}
								}
							}
						}
					}
				}
			}
		}
	}
}
MOTION
Frames: 12
Frame Time: 0.008333
9.803573 4.569268 9.782724 -2.153674 0.278159 -112.277980 4.200260 -7.063644 -5.169077 -11.940572 4.599507 23.481826 4.669856 8.697520 24.062185 4.478619 5.622288 -33.170518 5.995400 14.423800 44.963100 -9.999878 9.845953 -11.784167 9.709371 -17.428890 43.218735 -2.436931 -0.581494 -4.293125 -6.371974 -9.495217 -46.966470 -6.469200 -14.868100 46.837100 4.128425 -0.989635 19.574074 -12.943394 2.125069 28.212035 -0.353426 0.793081 -21.046203 -7.376842 5.027562 -8.627791 23.707970 7.465428 -12.106057 4.231000 2.091000 -1.347900 4.002432 -6.736978 -0.008129 -53.884042 -2.644242 -47.088533 128.717608 -46.441674 -84.222872 0.751920 2.171327 -42.342001 30.098175 -11.095769 -6.677700 -7.125000 0.000000 0.000000 0.567100 15.690300 -0.392600 1.078785 4.760399 0.205760 68.661187 -14.309235 0.915638 -138.116475 41.791528 -98.012275 -1.095072 -0.760019 -15.666884 -36.466158 -31.904432 20.467200 7.125000 0.000000 0.000000 -4.814700 -67.264100 2.582200 
9.798652 4.563630 9.808047 -2.282156 0.378180 -112.519548 4.051523 -7.115943 -5.199109 -11.462881 5.038885 23.467400 4.603956 8.775751 24.188654 4.461887 5.836698 -32.510797 5.417000 13.838600 42.594700 -9.997850 9.944124 -11.774185 9.575611 -17.545431 43.600411 -2.485148 -0.525712 -4.272010 -6.272396 -7.381664 -47.828880 -7.133800 -15.443500 49.378600 4.639510 -1.037936 20.008941 -13.715104 2.379785 28.161927 -0.464273 0.785775 -21.263137 -7.097445 4.870319 -8.843589 23.628306 7.142713 -11.528187 4.176200 1.981200 -1.246200 4.153695 -6.761798 0.039041 -53.029362 -3.447210 -48.721017 128.068902 -46.643471 -83.564950 0.743231 2.361516 -43.020269 33.130306 -10.253139 -7.153200 -7.125000 0.000000 0.000000 2.620200 16.002400 -1.798200 1.070939 4.685988 0.210835 69.139135 -14.765108 -0.986270 -138.567566 41.497465 -98.341821 -1.102655 -0.798201 -16.689402 -36.842785 -32.532789 21.052400 7.125000 0.000000 0.000000 -5.071200 -68.071500 2.813300 
9.794893 4.561930 9.801068 -2.319209 0.379130 -112.610225 3.935246 -7.170580 -5.207816 -10.881667 5.607367 23.350576 4.532700 8.836319 24.257146 4.417399 5.660053 -32.340844 5.078900 13.472100 41.162500 -10.055067 9.985541 -11.798165 9.587753 -17.625466 43.675270 -2.441040 -0.560578 -4.258372 -6.340041 -8.115686 -47.791575 -6.930300 -15.272900 48.610300 5.166901 -1.014386 20.237908 -14.277113 2.657867 28.079363 -0.627790 0.809223 -21.210130 -6.680459 4.658521 -8.407204 23.109144 6.917029 -12.144456 4.046000 1.823400 -1.368100 4.256986 -6.761126 0.050209 -51.892338 -4.941060 -50.407559 126.693267 -47.242671 -81.732823 0.532387 2.545397 -41.619580 32.094061 -8.130972 -5.871000 -7.125000 0.000000 0.000000 2.125800 18.197500 -1.356500 1.013519 4.633429 0.172247 69.550375 -15.155752 -2.913313 -138.910646 41.221627 -98.579651 -1.108823 -0.848700 -17.850469 -37.094888 -33.236038 21.584100 7.125000 0.000000 0.000000 -5.099600 -68.913200 2.926100 
9.792746 4.560230 9.790151 -2.288223 0.259497 -112.526099 3.866855 -7.193047 -5.208125 -10.430183 5.820231 23.186014 4.522582 8.867706 24.344908 4.387671 5.176088 -32.959217 4.996600 13.379900 40.807800 -10.153092 9.952461 -11.822526 9.847349 -17.664643 43.509090 -2.424844 -0.597427 -4.250775 -6.393186 -8.938463 -47.613876 -6.706700 -15.079900 47.756300 5.628801 -0.953778 20.271206 -14.515329 2.863359 27.925195 -0.799223 0.836511 -21.040431 -6.269701 4.462260 -7.610368 22.434229 6.779262 -13.268705 3.899500 1.673400 -1.592600 4.260450 -6.767479 -0.022820 -51.326661 -6.642915 -52.773738 125.217035 -47.986252 -79.579944 0.337706 2.650135 -36.329470 29.578169 -5.543039 -4.170900 -7.125000 0.000000 0.000000 0.681800 21.004600 -0.392100 0.956090 4.619455 0.140075 69.775272 -15.528437 -4.615644 -139.118956 41.000898 -98.703507 -1.113554 -0.882921 -18.966757 -37.814380 -33.655491 22.324500 7.125000 0.000000 0.000000 -5.995000 -69.616600 3.536000 
9.791851 4.556830 9.779502 -2.211507 0.154846 -112.579172 3.804084 -7.247981 -5.206943 -9.951250 6.203633 23.240842 4.456409 8.851356 24.223262 4.349199 4.747509 -33.413892 4.695900 13.032900 39.491700 -10.158887 9.954922 -11.829015 9.988367 -17.674551 43.484160 -2.395104 -0.632695 -4.227649 -6.429194 -9.751672 -47.343354 -6.499200 -14.895200 46.953800 5.827835 -0.910930 20.424206 -14.487891 2.973412 27.909545 -0.873524 0.870878 -21.039955 -5.791474 4.289395 -6.926864 21.516029 6.640216 -14.176321 3.717900 1.568900 -1.785100 4.199105 -6.730270 -0.114461 -51.096978 -7.682893 -54.506331 124.474168 -48.413406 -78.375624 0.237438 2.670684 -32.317237 27.505320 -4.138049 -3.235500 -7.125000 0.000000 0.000000 -0.610000 22.563700 0.329200 0.860658 4.646981 0.119777 69.797992 -15.753507 -6.074645 -139.242182 40.851964 -98.749361 -1.112381 -0.913778 -19.797168 -38.691158 -34.161075 23.245100 7.125000 0.000000 0.000000 -7.173700 -70.466600 4.369700 
9.792119 4.552177 9.778786 -2.099314 0.078854 -112.738893 3.703986 -7.324063 -5.208953 -9.386076 6.709651 23.390354 4.371051 8.841932 24.098468 4.222961 3.942735 -33.800933 4.488300 12.783300 38.562700 -10.135291 9.997207 -11.856097 10.066070 -17.669194 43.606202 -2.371067 -0.657456 -4.189109 -6.439340 -10.158825 -47.165309 -6.420700 -14.824000 46.647600 6.103535 -0.893213 20.821136 -14.538478 3.127588 27.849246 -1.098393 0.905993 -21.323103 -5.789582 4.263912 -6.940059 21.636190 6.558232 -13.973455 3.721800 1.529700 -1.772300 4.214930 -6.719513 -0.122865 -50.804747 -8.446062 -55.355736 123.925609 -48.776065 -77.439887 0.183290 2.658847 -29.699348 25.705644 -3.678954 -2.813400 -7.125000 0.000000 0.000000 -1.811200 23.124800 0.954800 0.839917 4.586972 0.129802 69.840496 -16.058806 -7.511639 -139.322047 40.757917 -98.738195 -1.105365 -0.956433 -20.516240 -39.619874 -34.956379 24.374800 7.125000 0.000000 0.000000 -8.403800 -71.638700 5.340100 
9.794088 4.548239 9.786571 -1.961977 -0.084375 -112.836536 3.679688 -7.381526 -5.184725 -8.921704 7.003759 23.478340 4.335241 8.812319 24.041280 4.041853 2.683128 -34.500141 4.648300 12.976400 39.280300 -10.063876 9.996163 -11.841605 10.222696 -17.633397 43.620028 -2.378975 -0.665558 -4.163591 -6.430889 -10.198932 -47.077802 -6.450000 -14.850600 46.761900 5.940732 -0.861330 20.931696 -14.025818 3.093717 28.144521 -1.273505 0.930794 -21.792164 -6.158880 4.481704 -8.098886 22.660186 6.633808 -12.185488 3.873200 1.683400 -1.421400 4.240210 -6.659388 -0.122127 -51.123115 -8.376679 -55.883574 123.920274 -48.910903 -77.259351 0.185819 2.584761 -28.327103 24.080110 -4.011925 -2.719900 -7.125000 0.000000 0.000000 -2.953700 22.929400 1.571600 0.838553 4.550293 0.201768 69.513316 -16.110291 -8.466122 -139.298788 40.784900 -98.625408 -1.085281 -0.998145 -21.339968 -40.777487 -35.580841 25.620500 7.125000 0.000000 0.000000 -10.264400 -72.701000 6.767700 
9.796414 4.546450 9.786840 -1.838175 -0.112104 -112.861679 3.639722 -7.408320 -5.162824 -8.717034 7.177486 23.506753 4.312596 8.798782 24.011303 3.943233 1.921641 -35.035136 4.558600 12.868800 38.879300 -10.057852 9.993184 -11.861619 10.305464 -17.556307 43.616151 -2.391851 -0.662192 -4.151941 -6.423240 -10.176000 -47.000898 -6.450900 -14.851500 46.765600 6.041490 -0.779276 20.989346 -13.975925 3.203371 28.024552 -1.293481 0.985787 -21.409582 -5.718143 4.300628 -6.536515 21.379005 6.759891 -14.980301 3.690800 1.556900 -1.981700 4.118513 -6.665058 -0.223856 -51.043357 -8.746128 -55.888436 123.840193 -48.945616 -77.041180 0.227821 2.491225 -27.707419 22.554147 -5.009539 -2.858900 -7.125000 0.000000 0.000000 -4.062600 22.071000 2.243800 0.740649 4.628163 0.117942 69.370586 -16.122446 -9.767426 -139.265047 40.687497 -98.549833 -1.076549 -1.036024 -22.317269 -41.621394 -35.964716 26.504800 7.125000 0.000000 0.000000 -11.727900 -73.410000 7.919700 
9.797130 4.545913 9.778428 -1.756905 -0.043595 -112.793042 3.586960 -7.417852 -5.183548 -8.638583 7.326266 23.482245 4.285336 8.806556 23.977101 3.932030 1.733857 -35.308174 4.197600 12.418800 37.230000 -10.138416 9.998519 -11.938688 10.390624 -17.507814 43.590333 -2.404890 -0.660674 -4.140499 -6.404880 -10.072943 -46.907516 -6.471900 -14.870500 46.847400 6.379526 -0.722470 21.191058 -14.399305 3.405355 27.509111 -1.456476 1.034389 -21.134869 -6.090077 4.345839 -5.573725 21.941000 7.044072 -16.598084 3.856900 1.498400 -2.352100 4.141246 -6.796004 -0.194256 -50.841918 -9.012501 -55.148772 123.857408 -48.956427 -76.978432 0.295418 2.374808 -27.994822 21.074740 -6.524525 -3.116000 -7.125000 0.000000 0.000000 -5.157800 20.731500 3.010100 0.845592 4.586267 0.080714 69.412218 -16.508007 -11.182751 -139.318632 40.533763 -98.545244 -1.066367 -1.085925 -23.601059 -42.175379 -36.369606 27.168300 7.125000 0.000000 0.000000 -12.669200 -74.039100 8.731800 
9.798204 4.544302 9.776370 -1.679784 -0.007758 -112.825206 3.528256 -7.422581 -5.192084 -8.634229 7.284718 23.648289 4.274752 8.781465 23.914515 3.871671 1.168367 -35.830209 4.397600 12.671500 38.151100 -10.171835 10.006312 -11.983613 10.484446 -17.493998 43.644829 -2.395467 -0.678617 -4.105763 -6.381888 -10.197435 -46.663276 -6.457500 -14.857500 46.791200 6.588968 -0.698778 21.414230 -14.661758 3.530676 27.179288 -1.553600 1.065935 -21.017127 -6.262172 4.397648 -4.974486 22.154386 7.257454 -17.632445 3.937800 1.487400 -2.599700 4.142458 -6.862887 -0.159632 -50.816995 -9.014048 -54.004775 124.027010 -48.863777 -77.234283 0.399113 2.291395 -29.630877 20.602618 -8.438340 -3.615300 -7.125000 0.000000 0.000000 -5.584400 18.926600 3.487700 0.900284 4.566039 0.059022 69.348322 -16.726222 -12.421291 -139.339389 40.431989 -98.515324 -1.047225 -1.140292 -24.840067 -42.498509 -36.817569 27.664700 7.125000 0.000000 0.000000 -13.173900 -74.620800 9.246200 
9.799994 4.542602 9.777981 -1.603767 0.003570 -112.984207 3.476641 -7.422713 -5.186216 -8.666455 7.211969 23.900817 4.261914 8.765710 23.865419 3.871304 0.902191 -36.297180 4.756000 13.103600 39.757400 -10.148394 10.021191 -11.990979 10.541016 -17.495081 43.808357 -2.368521 -0.705589 -4.057248 -6.367068 -10.459068 -46.402560 -6.307700 -14.720000 46.204400 6.668539 -0.701374 21.644562 -14.747245 3.588498 27.072005 -1.581244 1.079651 -20.973707 -6.134065 4.417640 -4.442138 21.772487 7.397315 -18.573542 3.890300 1.501200 -2.822000 4.106291 -6.873321 -0.147403 -50.959246 -8.736239 -52.676206 124.352154 -48.686514 -77.734279 0.404314 2.254817 -32.157337 20.441004 -9.135503 -3.769600 -7.125000 0.000000 0.000000 -5.750500 18.318100 3.670300 0.882496 4.587514 0.035474 69.224417 -16.719452 -13.476256 -139.277590 40.401837 -98.433606 -1.026599 -1.177298 -25.758965 -42.749888 -36.994925 27.959700 7.125000 0.000000 0.000000 -13.652300 -74.881600 9.660500 
9.803036 4.542065 9.772612 -1.565434 0.066582 -112.936507 3.463410 -7.393818 -5.189317 -8.811016 7.121019 23.905658 4.269462 8.758768 23.840611 3.903775 0.858706 -36.630658 5.029300 13.416700 40.949100 -10.224300 10.015487 -12.051718 10.591923 -17.455451 43.698271 -2.334530 -0.731687 -4.052956 -6.396801 -11.448210 -45.964856 -5.794800 -14.226500 44.152700 6.865015 -0.724316 21.753037 -15.140335 3.659954 26.763023 -1.544153 1.074559 -20.847366 -5.984396 4.468403 -4.128690 21.510158 7.545044 -19.224272 3.843500 1.539500 -2.965100 4.110902 -6.906233 -0.096276 -51.191180 -8.252705 -51.088856 124.605589 -48.370055 -78.596748 0.383042 2.509476 -35.001890 26.429640 -7.199239 -4.312700 -7.125000 0.000000 0.000000 -1.597200 19.621500 0.968500 0.927158 4.595911 0.029149 69.138314 -16.651190 -14.353113 -139.131230 40.439640 -98.283253 -1.009507 -1.197517 -26.438969 -43.370541 -36.952329 28.456600 7.125000 0.000000 0.000000 -15.035100 -75.040800 10.699400 
